<svg width="233" height="212" viewBox="0 0 233 212" fill="none" xmlns="http://www.w3.org/2000/svg">
<path fill-rule="evenodd" clip-rule="evenodd" d="M95.5367 49.0125C96.4893 49.9651 96.4893 51.5095 95.5367 52.462L62.4926 85.5061C56.9687 91.0301 56.9686 99.9862 62.4926 105.51L106.311 149.328C111.835 154.852 120.791 154.852 126.315 149.328L170.133 105.51C175.657 99.9862 175.657 91.0301 170.133 85.5061L150.245 65.6177C148.34 63.7126 145.251 63.7126 143.346 65.6177L131.193 77.7701C129.288 79.6752 129.288 82.7641 131.193 84.6692L140.308 93.7834C141.26 94.736 141.26 96.2804 140.308 97.2329L118.038 119.503C117.085 120.455 115.541 120.455 114.588 119.503L92.3183 97.2329C91.3657 96.2804 91.3657 94.736 92.3183 93.7834L152.691 33.4106C153.644 32.458 155.188 32.458 156.141 33.4106L196.805 74.0753C208.642 85.9123 208.642 105.104 196.805 116.941L137.746 176C125.909 187.838 106.717 187.838 94.8801 176L35.8206 116.941C23.9835 105.104 23.9835 85.9123 35.8206 74.0753L76.4853 33.4106C77.4378 32.458 78.9823 32.458 79.9348 33.4106L95.5367 49.0125ZM16.7692 55.0239L68.7767 3.20102C74.8517 -1.47374 83.5989 -1.02825 89.1646 4.53753L116.313 31.6858L143.461 4.53754C149.511 -1.51251 159.32 -1.51252 165.37 4.53753L215.857 55.0239C238.216 77.3827 238.216 113.634 215.857 135.992L156.797 195.052C134.438 217.411 98.1875 217.411 75.8286 195.052L16.7692 135.992C-5.58972 113.634 -5.58972 77.3827 16.7692 55.0239Z" fill="#7145E9"/>
</svg>
