<svg width="648" height="203" viewBox="0 0 648 203" fill="none" xmlns="http://www.w3.org/2000/svg">
<path fill-rule="evenodd" clip-rule="evenodd" d="M90.8494 46.3898C92.007 47.5474 92.007 49.4241 90.8494 50.5816L59.7194 81.7117C54.4406 86.9905 54.4406 95.5491 59.7194 100.828L101.593 142.702C106.872 147.981 115.431 147.981 120.709 142.702L162.583 100.828C167.862 95.5491 167.862 86.9905 162.583 81.7117L144.473 63.6012C142.158 61.2861 138.404 61.2861 136.089 63.6012L126.267 73.4236C123.952 75.7387 123.952 79.4921 126.267 81.8072L133.634 89.1739C134.791 90.3315 134.791 92.2082 133.634 93.3657L113.247 113.752C112.09 114.91 110.213 114.91 109.055 113.752L88.6691 93.3657C87.5116 92.2082 87.5116 90.3315 88.6691 89.1739L145.467 32.3756C146.625 31.2181 148.502 31.2181 149.659 32.3756L188.072 70.7881C199.383 82.0998 199.383 100.44 188.072 111.752L131.633 168.19C120.321 179.502 101.981 179.502 90.6696 168.19L34.231 111.752C22.9192 100.44 22.9192 82.0998 34.231 70.7881L72.6434 32.3756C73.801 31.2181 75.6777 31.2181 76.8352 32.3756L90.8494 46.3898ZM65.6363 2.97072L65.7246 3.05897C71.53 -1.40834 79.889 -0.982619 85.2078 4.33617L111.151 30.2797L137.095 4.33617C142.876 -1.44539 152.25 -1.4454 158.032 4.33617L206.278 52.5821C227.644 73.9487 227.644 108.591 206.278 129.958L149.839 186.396C128.472 207.763 93.8302 207.763 72.4636 186.396L16.025 129.958C-5.34166 108.591 -5.34166 73.9487 16.025 52.5821L65.6363 2.97072Z" fill="#F3AC3D"/>
<path d="M343.216 62.1706C343.982 59.7792 346.205 58.1564 348.716 58.1564H371.306C375.348 58.1564 378.139 62.2029 376.703 65.9814L348.489 140.229C347.638 142.47 345.49 143.952 343.092 143.952H318.455C316.058 143.952 313.909 142.47 313.058 140.229L284.844 65.9814C283.408 62.2028 286.199 58.1564 290.241 58.1564H312.832C315.343 58.1564 317.566 59.7792 318.331 62.1706L329.399 96.7577C329.827 98.0958 331.72 98.0958 332.148 96.7577L343.216 62.1706Z" fill="#7145E9"/>
<path d="M412.667 111.864C411.604 111.864 410.917 112.974 411.526 113.845C414.6 118.244 420.05 120.444 427.875 120.444C431.621 120.444 435.163 119.516 438.503 117.662C440.936 116.311 444.004 116.254 446.132 118.048L458.598 128.556C461.116 130.679 461.372 134.516 458.799 136.573C450.643 143.094 439.992 146.354 426.846 146.354C412.203 146.354 400.421 142.121 391.498 133.656C382.69 125.077 378.285 114.324 378.285 101.397C378.285 88.3563 382.575 77.4889 391.155 68.795C399.849 60.1011 410.773 55.7542 423.929 55.7542C436.969 55.7542 447.665 60.0439 456.016 68.6234C464.481 77.0886 468.714 87.7844 468.714 100.711C468.714 102.976 468.549 105.22 468.219 107.444C467.831 110.065 465.482 111.864 462.833 111.864H412.667ZM410.237 90.4818C410.042 90.9442 410.39 91.445 410.891 91.445H437.731C438.21 91.445 438.555 90.9852 438.404 90.531C436.314 84.2767 431.775 81.1495 424.786 81.1495C417.707 81.1495 412.857 84.2603 410.237 90.4818Z" fill="#7145E9"/>
<path d="M518.695 112.422C517.922 113.365 518.592 114.781 519.811 114.781H540.843C544.032 114.781 546.617 117.366 546.617 120.555V138.178C546.617 141.367 544.032 143.952 540.843 143.952H480.323C477.134 143.952 474.549 141.367 474.549 138.178V123.71C474.549 122.374 475.012 121.081 475.858 120.048L500.756 89.6856C501.528 88.7433 500.858 87.3268 499.64 87.3268H482.039C478.85 87.3268 476.265 84.7417 476.265 81.5528V63.9304C476.265 60.7415 478.85 58.1564 482.039 58.1564H539.127C542.316 58.1564 544.901 60.7415 544.901 63.9304V78.3985C544.901 79.7336 544.439 81.0273 543.592 82.0597L518.695 112.422Z" fill="#7145E9"/>
<path d="M616.256 63.8688C616.256 60.714 618.814 58.1564 621.969 58.1564H642.226C645.415 58.1564 648 60.7415 648 63.9304V138.178C648 141.367 645.415 143.952 642.226 143.952H621.969C618.814 143.952 616.256 141.394 616.256 138.239C616.256 137.567 615.394 137.254 614.935 137.744C609.559 143.484 602.335 146.354 593.263 146.354C581.709 146.354 572.272 142.064 564.951 133.485C557.629 124.905 553.969 114.095 553.969 101.054C553.969 88.0131 557.629 77.203 564.951 68.6234C572.272 60.0439 581.709 55.7542 593.263 55.7542C602.335 55.7542 609.559 58.624 614.935 64.3638C615.394 64.8543 616.256 64.5409 616.256 63.8688ZM589.831 112.551C592.691 115.639 596.409 117.184 600.985 117.184C605.56 117.184 609.221 115.639 611.966 112.551C614.826 109.462 616.256 105.63 616.256 101.054C616.256 96.4783 614.826 92.6461 611.966 89.5575C609.221 86.4688 605.56 84.9245 600.985 84.9245C596.409 84.9245 592.691 86.4688 589.831 89.5575C587.086 92.6461 585.713 96.4783 585.713 101.054C585.713 105.63 587.086 109.462 589.831 112.551Z" fill="#7145E9"/>
</svg>
