<svg xmlns="http://www.w3.org/2000/svg" viewBox="0 0 60 60" width="60" height="60">
  <!-- Tile geometry measured from the baked Figma PNG exports: 60x60, 14px outer
       radius, 2px #c7b0fc border, #f5f3ff fill. Glyph: MDI police-badge (from
       Veza-X priv/static/images/mdi/), 40x40 centered, app accent #5d28d9. -->
  <rect x="1" y="1" width="58" height="58" rx="13" fill="#f5f3ff" stroke="#c7b0fc" stroke-width="2"/>
  <g transform="translate(10 10) scale(1.66667)" fill="#5d28d9">
    <path d="M22 4L20 2C18.85 2.64 17.4 3 16 3C14.6 3 13.14 2.63 12 2C10.86 2.63 9.4 3 8 3C6.6 3 5.15 2.64 4 2L2 4C2 4 4 6 4 8S2 14 2 16C2 20 12 22 12 22S22 20 22 16C22 14 20 10 20 8S22 4 22 4M15.05 16.45L11.97 14.59L8.9 16.45L9.72 12.95L7 10.61L10.58 10.3L11.97 7L13.37 10.29L16.95 10.6L14.23 12.94L15.05 16.45Z"/>
  </g>
</svg>
